<svg width="13" height="12" viewBox="0 0 13 12" fill="none" xmlns="http://www.w3.org/2000/svg">
<path fill-rule="evenodd" clip-rule="evenodd" d="M7.03336 0.933358C7.03336 0.638808 6.79457 0.400024 6.50002 0.400024C6.20547 0.400024 5.96669 0.638808 5.96669 0.933358V5.46669H1.43336C1.13881 5.46669 0.900024 5.70547 0.900024 6.00002C0.900024 6.29457 1.13881 6.53336 1.43336 6.53336H5.96669V11.0667C5.96669 11.3612 6.20547 11.6 6.50002 11.6C6.79457 11.6 7.03336 11.3612 7.03336 11.0667V6.53336H11.5667C11.8612 6.53336 12.1 6.29457 12.1 6.00002C12.1 5.70547 11.8612 5.46669 11.5667 5.46669H7.03336V0.933358Z" fill="white"/>
</svg>
